<svg xmlns="http://www.w3.org/2000/svg" viewBox="0 0 100 100"><defs><style>.cls-1{fill:#231f20;}.cls-1,.cls-2,.cls-3,.cls-4,.cls-5,.cls-6,.cls-7{stroke:#231f20;stroke-miterlimit:10;stroke-width:1.5px;}.cls-2{fill:#0064f4;}.cls-3{fill:#ffd44d;}.cls-4{fill:#fff;}.cls-5{fill:#ff9515;}.cls-6,.cls-7{fill:none;}.cls-7{stroke-dasharray:4.89 4.89;}</style></defs><g id="Layer_2" data-name="Layer 2"><rect class="cls-1" x="32.09" y="35.95" width="63.02" height="28.1" rx="3.23" transform="translate(13.6 113.6) rotate(-90)"/><rect class="cls-2" x="22.89" y="35.95" width="63.02" height="28.1" rx="3.23" transform="translate(4.4 104.4) rotate(-90)"/><line class="cls-3" x1="53.07" y1="26.19" x2="63.6" y2="26.19"/><line class="cls-3" x1="53.07" y1="32.12" x2="63.6" y2="32.12"/><circle class="cls-3" cx="47.99" cy="26.19" r="1.95"/><circle class="cls-3" cx="47.99" cy="32.12" r="1.95"/><path class="cls-4" d="M47.65,38.43h.83a1.45,1.45,0,0,1,1.45,1.45v2.89a0,0,0,0,1,0,0H46.2a0,0,0,0,1,0,0V39.88A1.45,1.45,0,0,1,47.65,38.43Z"/><path class="cls-4" d="M54,38.43h.83a1.45,1.45,0,0,1,1.45,1.45v2.89a0,0,0,0,1,0,0H52.53a0,0,0,0,1,0,0V39.88A1.45,1.45,0,0,1,54,38.43Z"/><path class="cls-4" d="M60.32,38.43h.83a1.45,1.45,0,0,1,1.45,1.45v2.89a0,0,0,0,1,0,0H58.87a0,0,0,0,1,0,0V39.88A1.45,1.45,0,0,1,60.32,38.43Z"/><path class="cls-4" d="M47.65,45.66h.83a1.45,1.45,0,0,1,1.45,1.45V50a0,0,0,0,1,0,0H46.2a0,0,0,0,1,0,0V47.11A1.45,1.45,0,0,1,47.65,45.66Z"/><path class="cls-4" d="M54,45.66h.83a1.45,1.45,0,0,1,1.45,1.45V50a0,0,0,0,1,0,0H52.53a0,0,0,0,1,0,0V47.11A1.45,1.45,0,0,1,54,45.66Z"/><path class="cls-4" d="M60.32,45.66h.83a1.45,1.45,0,0,1,1.45,1.45V50a0,0,0,0,1,0,0H58.87a0,0,0,0,1,0,0V47.11A1.45,1.45,0,0,1,60.32,45.66Z"/><path class="cls-5" d="M58.94,63.59H47.24l-2.65-2.5a2.53,2.53,0,0,0-1.73-.68H35.61V81.75H59.17a1.91,1.91,0,0,0,1.91-1.91V65.73A2.14,2.14,0,0,0,58.94,63.59Z"/><path class="cls-3" d="M56.26,63.59H45.6A2.26,2.26,0,0,1,44,63L42,61a2.29,2.29,0,0,0-1.57-.62H29a3,3,0,0,0-3,3V78.88a2.87,2.87,0,0,0,2.88,2.87H56.26a2.27,2.27,0,0,0,2.28-2.27V65.87A2.28,2.28,0,0,0,56.26,63.59Z"/><path class="cls-5" d="M51,63.59H39.31l-2.65-2.5a2.49,2.49,0,0,0-1.72-.68H27.69V81.75H51.24a1.91,1.91,0,0,0,1.92-1.91V65.73A2.14,2.14,0,0,0,51,63.59Z"/><path class="cls-3" d="M48.34,63.59H37.67A2.26,2.26,0,0,1,36.11,63L34.05,61a2.26,2.26,0,0,0-1.56-.62H21.12a3,3,0,0,0-3.05,3V78.88A2.87,2.87,0,0,0,21,81.75H48.34a2.27,2.27,0,0,0,2.27-2.27V65.87A2.28,2.28,0,0,0,48.34,63.59Z"/><line class="cls-6" x1="35.61" y1="26.19" x2="33.11" y2="26.19"/><polyline class="cls-6" points="28.81 26.19 26.31 26.19 26.31 28.69"/><line class="cls-7" x1="26.31" y1="33.58" x2="26.31" y2="50.69"/><line class="cls-6" x1="26.31" y1="53.14" x2="26.31" y2="55.64"/></g></svg>