<?xml version="1.0"?>
<svg width="575.45508" height="668.31863" xmlns="http://www.w3.org/2000/svg" xmlns:svg="http://www.w3.org/2000/svg" data-name="Layer 1">
 <g class="layer">
  <title>Layer 1</title>
  <path d="m575.46,593.25l-154.46,0l0,-2l0,0a152.45,152.45 0 0 0 152.46,-152.46l0,-107.79l2,0l0,262.25z" fill="#f2f2f2" id="svg_1"/>
  <path d="m466.29,319.49a114.23,114.23 0 0 1 -12.56,3.97c-5.62,1.37 -8.8,2.01 -14.23,-0.1c-0.19,-0.08 -0.37,-0.15 -0.54,-0.22a57.68,57.68 0 0 1 -35.11,-52.3c-0.03,-0.38 -0.03,-0.79 -0.03,-1.18a56.19,56.19 0 0 1 0.28,-5.68a57.37,57.37 0 0 1 1.23,-7.63l-0.06,-0.01c-4.39,-4.49 -6.09,-10.65 -5.52,-16.84a27.83,27.83 0 0 1 12.57,-20.81a44.03,44.03 0 0 1 18.28,-6.45a46.33,46.33 0 0 1 5.25,-0.31l16.5,0a71.28,71.28 0 0 1 10.36,-1.63l0.03,0c33.2,-2.76 59.39,19.26 56.95,46.04c-0.02,0.03 -0.05,0.06 -0.07,0.09c-0.7,1.15 -1.33,2.24 -1.88,3.29c-0.53,0.97 -0.99,1.9 -1.37,2.79c-3.03,6.85 11.37,113.06 6.2,114.67c-2.94,0.92 -14.79,-78.12 -12.66,-63.09c2.67,18.86 -28.32,-0.26 -43.62,5.4z" fill="#2f2e41" id="svg_2" transform="translate(-312.27246 -115.84068)"/>
  <polygon fill="#ffb6b6" id="svg_3" points="204.039 395.654 250.068 493.714 73.005 475.781 109.966 381.645 204.039 395.654"/>
  <path d="m296.44,592.26a257.91,257.91 0 0 1 -95.64,12.81l-14.09,-22.85s-0.59,8.51 -1.47,21.52a248.82,248.82 0 0 1 -45.47,-9.64c-28.11,-8.79 -54.46,-22.41 -81.17,-34.97c-5.41,-32.25 -7.44,-81.98 22.47,-110.93l160.99,29.5s25.83,19.32 18.92,26.24c-6.91,6.91 -7.98,5.84 -3.44,10.38c4.54,4.54 14.35,10.61 14.45,14.58c0.04,1.55 11.05,29.66 24.45,63.36z" fill="#2f2e41" id="svg_4" transform="matrix(1 0 0 1 0 0)"/>
  <path d="m488.2,322.01l-38.9,2.71l-25.13,24.29l-8.81,1.57a32.82,32.82 0 0 0 -27.01,34.25c1.82,30.68 5.87,76.53 14.35,91.4c13.14,23.06 23.99,15.83 13.14,23.06s-18.15,1.55 -13.14,12.99s-6.76,26.11 -6.76,26.11l-4.68,4.68l4.96,2.03l158.2,20.59s-13.68,-61.51 -5.13,-76.61s29.3,-60.78 10.79,-78.65l-18.1,-63.69l-31.14,-9.19l-22.64,-15.54z" fill="#4a7c97" id="svg_5" transform="translate(-312.27246 -115.84068)"/>
  <path d="m723.65,574.43a17.98,17.98 0 0 1 -17.08,-21.41l-74.21,-50.25l8.85,-23.94l87.7,60.33a17.96,17.96 0 0 1 -5.26,35.27z" fill="#ffb6b6" id="svg_6" transform="translate(-312.27246 -115.84068)"/>
  <path d="m514.05,343.73l-10.78,4.27l57.52,112.34l119.08,81.17l17.16,-29.01l-90.64,-78.3l-36.29,-69.59a44.67,44.67 0 0 0 -56.05,-20.88z" fill="#4a7c97" id="svg_7" transform="translate(-312.27246 -115.84068)"/>
  <circle cx="154.46" cy="157.23" fill="#ffb6b6" id="svg_8" r="39.06"/>
  <path d="m500.69,256.56c-0.65,0.34 -1.29,0.66 -1.94,0.97c-0.68,0.33 -1.36,0.65 -2.05,0.96c-13.07,5.93 -23.72,6.59 -30.17,-1.93a36.17,36.17 0 0 0 -2.98,-13.01a20.9,20.9 0 0 1 -3.45,13.01l-13,0c-13.4,8.89 -20.27,17.05 -10.97,46.24c0.6,1.92 4.75,70.05 5.94,75.29c-20.28,-7.78 -37.78,-90.37 -38.22,-112.14c-0.03,-0.35 -0.03,-0.72 -0.03,-1.08a47.55,47.55 0 0 1 0.28,-5.22a48.86,48.86 0 0 1 1.23,-7.02l-0.06,-0.01a18.33,18.33 0 0 1 -5.52,-15.48a44.66,44.66 0 0 1 12.41,-11.13a79.2,79.2 0 0 1 13.58,-5.1c0.12,-0.03 0.22,-0.06 0.34,-0.08c1.42,-0.39 2.89,-0.74 4.36,-1.05a81.87,81.87 0 0 1 9.14,-1.39c0.23,-0.01 0.44,-0.02 0.64,-0.02a6.85,6.85 0 0 1 3.49,0.96c0.01,0 0.01,0 0.03,0a6.89,6.89 0 0 1 3.36,5.87l14.49,0c0.53,0 1.06,0.01 1.6,0.04c20.18,0.81 36.4,9.44 37.44,29.27c0.04,0.69 0.06,1.36 0.06,2.05z" fill="#2f2e41" id="svg_9" transform="translate(-312.27246 -115.84068)"/>
  <circle cx="102.75" cy="116.55" fill="#2f2e41" id="svg_10" r="25.73"/>
  <path d="m450.34,220.49c-2.92,13.91 -17.34,22.23 -31.14,18.83a25.73,25.73 0 0 1 -18.82,-31.15c3.4,-13.79 20.15,-9.82 31.14,-18.82c15.56,-12.73 22.77,12.39 18.82,31.14z" fill="#2f2e41" id="svg_11" transform="translate(-312.27246 -115.84068)"/>
  <path d="m393.18,607.6c21.93,-89.43 65.38,-166.29 137.34,-226.52a20.25,20.25 0 0 1 27.77,-6.8l171.07,103.72a20.25,20.25 0 0 1 6.81,27.78c-27.47,91.76 -68.6,171.38 -137.34,226.51a20.25,20.25 0 0 1 -27.78,6.81l-171.07,-103.73a20.25,20.25 0 0 1 -6.8,-27.77z" fill="#f2f2f2" id="svg_12" transform="translate(-312.27246 -115.84068)"/>
  <path d="m423.58,637.74a20.25,20.25 0 0 1 -6.81,-27.78c21.93,-89.43 65.38,-166.29 137.34,-226.52a19.98,19.98 0 0 1 7.55,-7.12l-3.37,-2.05a20.25,20.25 0 0 0 -27.77,6.81c-71.96,60.22 -115.41,137.09 -137.34,226.52a20.25,20.25 0 0 0 6.8,27.77l171.07,103.73a20.16,20.16 0 0 0 20.23,0.32l-167.7,-101.68z" id="svg_13" opacity="0.2" transform="translate(-312.27246 -115.84068)"/>
  <path d="m624.2,587.77l-114.83,-69.19a8.04,8.04 0 0 1 8.3,-13.78l114.83,69.19a8.04,8.04 0 0 1 -8.3,13.78z" fill="#fff" id="svg_14" transform="translate(-312.27246 -115.84068)"/>
  <path d="m557.4,496.02l-25.26,-15.22a8.04,8.04 0 0 1 8.26,-13.81l0.04,0.03l25.26,15.22a8.04,8.04 0 0 1 -8.3,13.78z" fill="#fff" id="svg_15" transform="translate(-312.27246 -115.84068)"/>
  <path d="m605.95,618.06l-114.83,-69.19a8.04,8.04 0 0 1 8.29,-13.79l0.01,0.01l114.83,69.19a8.04,8.04 0 0 1 -8.3,13.78z" fill="#fff" id="svg_16" transform="translate(-312.27246 -115.84068)"/>
  <circle cx="326.51" cy="307.93" fill="#3f3d56" id="svg_17" r="33.54"/>
  <circle cx="275.7" cy="588.63" fill="#ff5656" id="svg_18" r="71.69" stroke="#ff5656"/>
  <ellipse cx="812.17" cy="344.62" fill="#fff" id="svg_21" rx="5.18" ry="3.6" transform="translate(-338.67921 -45.39552) rotate(-4.88719)"/>
  <ellipse cx="844.22" cy="333.75" fill="#3f3d56" id="svg_22" rx="5.18" ry="3.6" transform="translate(-337.63641 -42.70455) rotate(-4.88719)"/>
  <ellipse cx="796.98" cy="320.17" fill="#ff6584" id="svg_23" rx="5.18" ry="3.6" transform="translate(-336.65124 -46.77873) rotate(-4.88719)"/>
  <ellipse cx="783.12" cy="312.68" fill="#e6e6e6" id="svg_24" rx="2.28" ry="3.27" transform="translate(-361.92998 64.44338) rotate(-12.7322)"/>
  <ellipse cx="773.55" cy="293.56" fill="#3f3d56" id="svg_25" rx="2.28" ry="3.27" transform="translate(-357.94956 61.86343) rotate(-12.7322)"/>
  <ellipse cx="819.47" cy="320.42" fill="#e6e6e6" id="svg_26" rx="2.28" ry="3.27" transform="translate(-362.74075 72.64536) rotate(-12.7322)"/>
  <ellipse cx="805.47" cy="332.04" fill="#ff6584" id="svg_27" rx="2.28" ry="3.27" transform="translate(-365.64622 69.84586) rotate(-12.7322)"/>
  <ellipse cx="830.96" cy="341.51" fill="#3f3d56" id="svg_28" rx="2.28" ry="3.27" transform="translate(-367.10572 75.69535) rotate(-12.7322)"/>
  <ellipse cx="675.13" cy="198.76" fill="#fff" id="svg_29" rx="3.6" ry="5.18" transform="translate(4.33932 688.54051) rotate(-75.77932)"/>
  <ellipse cx="641.29" cy="198.54" fill="#3f3d56" id="svg_30" rx="3.6" ry="5.18" transform="translate(-20.9789 655.56939) rotate(-75.77932)"/>
  <ellipse cx="681.49" cy="226.84" fill="#ff6584" id="svg_31" rx="3.6" ry="5.18" transform="translate(-18.0879 715.87766) rotate(-75.77932)"/>
  <ellipse cx="692.13" cy="238.45" fill="#e6e6e6" id="svg_32" rx="3.27" ry="2.28" transform="translate(66.02744 783.97815) rotate(-83.62433)"/>
  <ellipse cx="694.91" cy="259.65" fill="#3f3d56" id="svg_33" rx="3.27" ry="2.28" transform="translate(47.42466 805.59664) rotate(-83.62433)"/>
  <ellipse cx="660.31" cy="219.24" fill="#e6e6e6" id="svg_34" rx="3.27" ry="2.28" transform="translate(56.83259 735.28249) rotate(-83.62433)"/>
  <ellipse cx="677.35" cy="212.84" fill="#ff6584" id="svg_35" rx="3.27" ry="2.28" transform="translate(78.33185 746.52093) rotate(-83.62433)"/>
  <ellipse cx="656.36" cy="195.55" fill="#3f3d56" id="svg_36" rx="3.27" ry="2.28" transform="translate(76.85916 710.30149) rotate(-83.62433)"/>
  <path d="m314.27,378.09l-2,0l0,-262.25l154.46,0l0,2l0,0a152.45,152.45 0 0 0 -152.46,152.46l0,107.79z" fill="#f2f2f2" id="svg_37" transform="translate(-312.27246 -115.84068)"/>
  <path d="m91.57,492.7a19.07,19.07 0 0 1 -9.03,-27.6l-55.11,-77.46l17.68,-20.51l64.78,92.48a19.05,19.05 0 0 1 -18.32,33.09z" fill="#ffb6b6" id="svg_38" transform="matrix(1 0 0 1 0 0)"/>
  <path d="m92.84,247.23l0,0a13.6,13.6 0 0 0 -17.38,3.06l-74.46,104.13l69,98l27,-29l-42,-66l55.82,-53.14a44.67,44.67 0 0 0 -17.98,-57.05z" fill="#4a7c97" id="svg_39" transform="matrix(1 0 0 1 0 0)"/>
  <rect fill="#ffffff" height="17" id="svg_40" stroke="#ffffff" transform="matrix(0.707107 0.707107 -0.707107 0.707107 495.88 -20.7976)" width="99" x="224.25" y="578.97"/>
  <rect fill="#ffffff" height="17" id="svg_41" stroke="#ffffff" transform="matrix(0.702807 -0.71138 0.71138 0.702807 -335.612 370.019)" width="99" x="223.41" y="580.29"/>
 </g>
</svg>